<?xml version="1.0" encoding="UTF-8" standalone="no"?>
<svg
   xmlns:dc="http://purl.org/dc/elements/1.1/"
   xmlns:cc="http://creativecommons.org/ns#"
   xmlns:rdf="http://www.w3.org/1999/02/22-rdf-syntax-ns#"
   xmlns:svg="http://www.w3.org/2000/svg"
   xmlns="http://www.w3.org/2000/svg"
   xmlns:sodipodi="http://sodipodi.sourceforge.net/DTD/sodipodi-0.dtd"
   xmlns:inkscape="http://www.inkscape.org/namespaces/inkscape"
   viewBox="0 0 925.41461 925.41461"
   version="1.1"
   id="svg932"
   width="925.41461"
   height="925.41461"
   sodipodi:docname="icon.svg"
   inkscape:version="0.92.2 2405546, 2018-03-11"
   inkscape:export-filename="/home/nikku/camunda/projects/bpmn-io/.other/zeebe-modeler/app/resources/favicon.png"
   inkscape:export-xdpi="26.559999"
   inkscape:export-ydpi="26.559999">
  <sodipodi:namedview
     pagecolor="#ffffff"
     bordercolor="#666666"
     borderopacity="1"
     objecttolerance="10"
     gridtolerance="10"
     guidetolerance="10"
     inkscape:pageopacity="0"
     inkscape:pageshadow="2"
     inkscape:window-width="2552"
     inkscape:window-height="1379"
     id="namedview825"
     showgrid="false"
     showguides="false"
     inkscape:zoom="0.61648043"
     inkscape:cx="383.71483"
     inkscape:cy="507.67079"
     inkscape:window-x="0"
     inkscape:window-y="57"
     inkscape:window-maximized="0"
     inkscape:current-layer="svg932" />
  <metadata
     id="metadata938">
    <rdf:RDF>
      <cc:Work
         rdf:about="">
        <dc:format>image/svg+xml</dc:format>
        <dc:type
           rdf:resource="http://purl.org/dc/dcmitype/StillImage" />
        <dc:title></dc:title>
      </cc:Work>
    </rdf:RDF>
  </metadata>
  <defs
     id="defs936" />
  <g
     id="g1405">
    <g
       id="g1389">
      <path
         id="path1383"
         d="M 462.70703 60.830078 A 439.59222 401.4726 0 0 0 23.115234 462.30273 A 439.59222 401.4726 0 0 0 256.79883 816.76367 L 211.97852 816.76367 L 211.97852 888.56445 L 713.43555 888.56445 L 713.43555 816.76367 L 668.46875 816.76367 A 439.59222 401.4726 0 0 0 902.29883 462.30273 A 439.59222 401.4726 0 0 0 462.70703 60.830078 z "
         style="opacity:1;fill:#ffffff;fill-opacity:1;stroke:none;stroke-width:8.19615364;stroke-linecap:round;stroke-linejoin:round;stroke-miterlimit:4;stroke-dasharray:none;stroke-dashoffset:0;stroke-opacity:0.58146063" />
    </g>
    <g
       id="g1431">
      <g
         id="g1511">
        <g
           id="g1443">
          <ellipse
             style="opacity:1;fill:#ffffff;fill-opacity:0;stroke:none;stroke-width:8.66677189;stroke-linecap:round;stroke-linejoin:round;stroke-miterlimit:4;stroke-dasharray:none;stroke-dashoffset:0;stroke-opacity:0.58146063"
             id="path1578"
             cx="457.40927"
             cy="452.80206"
             rx="423.99091"
             ry="392.93307" />
          <rect
             style="opacity:1;fill:#ffffff;fill-opacity:0;stroke:none;stroke-width:7.48593092;stroke-linecap:round;stroke-linejoin:round;stroke-miterlimit:4;stroke-dasharray:none;stroke-dashoffset:0;stroke-opacity:0.58146063"
             id="rect1582"
             width="501.50128"
             height="94.466522"
             x="211.9792"
             y="722.29712" />
          <path
             class="st0"
             d="M 462.70731,36.849428 C 207.04062,36.849428 -5.1717969e-6,243.89006 -5.1717969e-6,499.55674 -5.1717969e-6,662.53 84.33581,806.12882 211.97921,888.56518 c 8.73749,-19.75433 25.07281,-38.36899 42.5478,-54.32442 l 415.22092,-1.13967 c 17.85488,16.33532 34.94998,35.32987 43.68748,55.46409 C 841.0788,806.12882 925.41462,662.90989 925.41462,499.55674 925.41462,243.89006 718.37399,36.849428 462.70731,36.849428 Z M 810.68752,558.43985 c -8.35761,1.13968 -15.57554,-2.27934 -20.13423,-8.3576 -4.93858,-6.83804 -12.9163,-10.63695 -21.2739,-10.63695 h -7.97771 c 0.75978,7.97771 1.13967,15.95542 1.13967,23.93314 0.37989,86.99505 -39.12878,167.53195 -107.12928,222.23627 L 271.6221,786.75438 C 203.24171,732.05007 163.35315,651.89305 163.35315,564.898 c 0,-8.73749 0.37989,-17.0951 1.13967,-25.4527 h -7.97771 c -8.3576,0 -16.33531,3.79891 -21.2739,10.63695 -4.55869,6.07826 -11.77662,9.49728 -20.13422,8.3576 -10.63695,-1.51956 -18.614666,-11.39673 -18.614666,-22.03368 v -45.96682 c 0,-11.01684 7.597826,-20.51411 18.614666,-22.03368 4.1788,-0.37989 7.97771,0 11.77662,1.51957 23.17335,-183.10749 164.11294,-324.42697 335.06391,-324.80686 61.92225,0 120.42547,18.23477 170.57109,50.9054 l 31.91085,-25.83259 c -4.93859,-8.73749 -4.93859,-20.13423 1.51956,-28.87172 8.35761,-11.77662 25.07281,-14.81575 37.22933,-6.07826 11.77662,8.35761 14.81575,25.07281 6.07825,37.22933 -5.69836,8.3576 -15.57553,12.15651 -25.07281,11.01684 l -14.81575,40.26845 c 68.76028,58.88311 116.62656,146.25806 129.54285,246.5493 3.41902,-1.51957 7.59783,-2.27935 12.15652,-1.89946 10.63695,1.51957 18.61466,11.39673 18.61466,22.03368 v 45.96682 c -0.37989,10.63695 -8.3576,20.51412 -18.99455,22.03368 z"
             id="path4"
             style="fill:#0d8dba;stroke-width:3.79891062"
             inkscape:connector-curvature="0" />
          <path
             class="st0"
             d="m 462.70731,244.64984 c -0.3799,0 -0.75979,0 -0.75979,0 -153.09609,0.37989 -281.49927,102.19069 -318.3487,238.95147 3.79891,2.27935 8.3576,3.41902 12.91629,3.41902 H 173.9901 C 208.94008,365.0753 324.42696,275.42101 461.94752,275.04112 c 0.37989,0 0.37989,0 0.75979,0 137.52056,0 253.38733,90.03418 288.33731,211.97921 h 17.85488 c 4.55869,0 9.11739,-1.13967 12.9163,-3.41902 C 744.96636,346.46064 615.8034,244.64984 462.70731,244.64984 Z"
             id="path6"
             style="fill:#0d8dba;stroke-width:3.79891062"
             inkscape:connector-curvature="0" />
          <path
             class="st0"
             d="m 550.08225,394.70681 h -174.37 c -91.93363,0 -166.77217,74.45864 -166.77217,166.39228 v 15.19564 c 0,91.93364 74.45865,166.39229 166.39228,166.39229 h 174.37 c 91.93364,0 166.39228,-74.45865 166.39228,-166.39229 V 561.09909 C 716.47453,469.16545 642.01589,394.70681 550.08225,394.70681 Z m -6.45815,295.93513 c -25.07281,9.11739 -60.02279,11.39673 -86.61516,11.39673 -21.65379,0 -37.60921,-1.51956 -39.12878,-1.51956 -7.21793,-0.75978 -12.5364,-7.21793 -12.15651,-14.43586 0.75978,-7.21793 7.21793,-12.53641 14.43586,-12.15651 0.75978,0 74.07875,6.45814 113.96732,-8.35761 6.83803,-2.65924 14.43586,1.13968 17.09509,7.97771 3.03913,6.83804 -0.75978,14.43586 -7.59782,17.0951 z m 72.1793,-90.03418 c -17.09509,18.23477 -40.64834,28.11194 -65.72115,28.11194 -29.6315,0 -57.36355,-14.43586 -74.07876,-38.74889 -4.1788,-6.07826 -2.65923,-14.43586 3.41902,-18.61466 6.07826,-4.1788 14.43586,-2.65924 18.61466,3.41902 12.15652,17.0951 31.53096,27.35216 52.42497,27.35216 17.85488,0 34.1902,-7.21793 46.34671,-20.13423 12.15651,-12.9163 18.23477,-29.6315 17.47499,-47.48638 -1.89946,-32.67063 -28.49183,-58.88312 -61.16246,-60.40268 -19.37445,-0.75978 -37.60922,7.21793 -50.52551,21.65379 -3.03913,3.03913 -5.69837,7.21793 -8.35761,12.15651 l -39.12878,72.93909 c -5.69836,10.25705 -12.5364,18.99455 -20.13422,25.83259 -16.33532,14.05597 -37.22933,22.03368 -59.26301,22.03368 -25.07281,0 -48.24616,-9.87717 -65.72115,-28.11194 -17.0951,-18.23477 -25.83259,-42.16791 -24.69292,-67.24072 2.65924,-45.96681 40.64834,-83.57603 86.61516,-85.47549 32.29074,-1.13967 62.68203,14.81576 79.77713,41.78802 3.79891,6.07826 2.27934,14.43586 -4.17881,18.23477 -6.07825,3.79891 -14.43586,2.27935 -18.23477,-4.1788 -12.5364,-19.37444 -33.43041,-30.39128 -56.60377,-29.6315 -32.67063,1.13967 -59.64289,27.73205 -61.16246,60.40268 -1.13967,17.85488 5.31848,34.57008 17.47499,47.48638 12.15652,12.9163 28.49183,20.13423 46.34671,20.13423 15.19564,0 30.0114,-5.69837 41.78802,-15.57554 5.31847,-4.55869 10.25706,-11.01684 14.43586,-18.23477 l 39.12878,-72.93908 c 3.79891,-6.83804 7.59782,-12.53641 11.77662,-17.0951 18.23477,-20.51412 44.06736,-31.53096 71.41952,-30.39129 45.96682,1.89946 83.95592,39.50868 86.61516,85.47549 1.51957,25.4527 -7.59782,49.00595 -24.69292,67.24072 z"
             id="path8"
             style="fill:#0d8dba;stroke-width:3.79891062"
             inkscape:connector-curvature="0" />
        </g>
      </g>
    </g>
  </g>
</svg>
